<?xml version="1.0" encoding="utf-8"?>
<!-- Generator: Adobe Illustrator 18.1.1, SVG Export Plug-In . SVG Version: 6.00 Build 0)  -->
<svg version="1.1" id="Calque_1" xmlns="http://www.w3.org/2000/svg" xmlns:xlink="http://www.w3.org/1999/xlink" x="0px" y="0px"
	 viewBox="-139 305.1 487.2 159.9" enable-background="new -139 305.1 487.2 159.9" xml:space="preserve">
<g id="SvgjsG2935" transform="matrix(1.4498006105422974,0,0,1.4498006105422974,-48.4345955538228,-15.483094124545385)">
	<g>
		<g>
			<g>
				<g>
					<path fill="#3F4A56" d="M4.2,317.7c-0.5-0.6-0.9-0.2-0.9-0.6c-2.8,0.7-8.2-1.2-10.4-0.9c0.5-0.7-0.7-0.6-0.7-1.1
						c-0.5,0.7-0.9,0-1.7,0.2c-0.7-1.8-3.5-0.5-3.9-2.7c-1.7,0-2.2-0.9-3.9-1.9c0.1-0.1,0.2-0.1,0.4-0.2c-0.8-0.1-0.8-0.6-1.5-0.6
						l0.2-0.5c-1.3-0.2-1.8-2.2-3.7-3c-0.6-0.1-1.9-2.1-2.6-2.6c-0.4-0.2-0.9-0.2-0.1-0.4c-0.1-0.1-0.1-0.4,0-0.5
						c-0.8-0.2-0.9-0.9-2-1.3c-0.1-0.4,0.2-0.6,0-0.8c-0.2-0.1-0.6,0.1-0.8,0c-0.1,2.1,2.2,2.4,3,4.1c-0.2-0.2-0.6-0.9-0.8-0.5
						c-0.1,0.4,0.9,1.7,0.9,0.9c-0.4,0.2-0.5-0.4-0.2-0.5c0.4,0.6,1.1,0.5,1.1,0.9c-0.4,0.4-0.8-0.4-0.7,0.2c1.1,0.6,0.9,1.2,1.5,2
						c-0.5-0.6-0.6,0.5-1.1,0c-0.1-1.8-2.1-1.4-2.1-3.2c-0.2-0.6-0.5-0.1-0.8-0.4c0.5-0.5-1.4-2.1-1.4-1.5c-0.6-0.7-0.2-0.9-0.4-1.4
						c-0.5-0.1-0.1,0.5-0.5,0.1c0.5-0.8-0.6-1.9-1.3-2.7l0.5-0.2c-0.8-0.5-0.9-1.4-1.5-2.5c-0.7,1.1,1.4,3.4,1.1,3.9
						c0,0.1,0.8,1.1,1.1,1.5c0.9,1.7,1.7,3.7,3,4.6c-0.2-0.1-0.1-0.8,0.2-0.5c0,0.4-0.2,0.7-0.2,1.1c0.7,0.7,1.3,1.3,2,2
						c-1.5-0.9-3.1-1.9-4.1-3.3c0.6-0.1,1.2,0.9,1.7,0.8c-1.2-0.9-0.8-1.3-1.3-2.5c-0.5-0.4,0.1,0.5-0.4,0.6
						c-1.5-1.4-2.7-2.2-3.4-3.5c0.1-0.1,0.2-0.2,0.2-0.5c-0.1-0.1-0.1-0.1-0.2-0.2c0.7,0.7,0.9,1.3,1.8,1.4c-0.4-0.4,0-0.5-0.5-0.8
						c-0.2-0.5-0.6,0.2-0.8-0.1c0.2-0.4,0-0.8,0-1.2c-0.2,0-0.5,0-0.6-0.4c-0.2-0.1-0.4,0-0.5,0.2c-0.1-0.1-0.1-0.4-0.2-0.5V299
						c-0.1-0.1-0.2-0.4-0.4-0.5c-0.9-2.5-1.5-5.8-2.8-7.9c0.4-1.4-0.2-4.3-0.6-5c0.4-0.6,0.1-3.3-0.1-3.8c-0.6,0.2,0.1,1.5-0.5,1.9
						c-0.6-2.6,0.4-5.6,0.1-7.9c0.2,0,0.5,0,0.5-0.1c-0.4-0.4,0.2-1.1,0.1-1.9c0.5-1.1-1.1,1.5-1.1,2.6c-0.1,0.2-0.6,0-0.5,0.6
						c0,0.8,0.2,2.5-0.2,3.7c-0.2,0-0.2-0.2-0.5-0.1c-0.1,0.6-0.2,1.3-0.4,1.9c-0.1-0.2-0.2-0.6-0.2-0.7c-0.6-3,0-6.4-0.2-8.9
						c0.5,0,0.5-0.7,0.8-0.9c-0.1,0.9-0.4,2.1,0.2,2.4c0.5-4.6,1.4-9.7,3.5-14.7c1.5-3.7,3.8-7.3,6.5-10.3c0.2,0.4-0.1,1.2,0,1.5
						c2.4-2.5,3.9-5.4,6.5-7.1c0.1,0.6-1.1,1.1-1.1,1.5c1.1-1.1,1.4-0.7,2.6-1.1c0.4-0.5-0.5,0-0.6-0.5c0.7-0.5,1.2-1.1,1.7-1.4
						c0,0.1-0.1,0.1-0.1,0.2c1.3-0.4,1.4-1.1,2.4-1.3c-0.1-0.1-0.4-0.2-0.7-0.1c0.2-0.1,0.6-0.4,0.9-0.5c-0.1,0-0.1,0.1-0.2,0.1
						c0.7-0.4,0.1,0.1,0.1,0.4c0.1,0,0.2-0.1,0.2-0.1c-0.7,0.5-1.2,0.7-1.4,1.5c0.4-0.2,0.5,0,0.9-0.4c0.5-0.2-0.1-0.6,0.2-0.8
						c0.4,0.2,0.8,0.1,1.2,0.1c0-0.2,0.1-0.5,0.4-0.6c0.1-0.2,0-0.4-0.1-0.4c0.1-0.1,0.2-0.1,0.5-0.2c0,0,0.1,0,0.1,0.1
						c2-0.9,4.3-1.8,6.4-2.5c1.3-0.1,3-0.1,3.7-0.9c-0.2,0-0.5,0.1-0.6,0c0.1,0,0.4-0.1,0.5-0.1c0.2,0.2,0.6,0,0.2,0.5
						c0.1,0,0.1,0,0.2-0.1c0,0.1,0,0.1,0.1,0.2c0.1,0,0.2-0.1,0.4-0.4c0.1,0,0.2,0,0.4-0.1l-0.1,0.1c0.9-0.2,1.8-0.1,3.1-0.4
						c0-0.1,0-0.2,0-0.4c0.2,0,0.4-0.1,0.6-0.1v0.1c0.5-0.2,0.9,0.2,0.9,0c0.1,0,0.1,0,0.2,0c0,0.2-0.1,0.4-0.1,0.5
						c0.6,0,0.9,0,1.2-0.4c-0.1-0.1-0.2-0.1-0.4-0.1c0.2,0,0.5-0.1,0.7-0.2c0.4,0.1,0.5,0.2,0.5,0.7c0.6-1.1,2.5,0.2,3.3,0
						c0.4,0,0.2-0.5,0.5-0.7c0.1,0,0.2,0,0.4,0c0.6,0.5,1.4,0.9,2.5,1.1c-0.9-0.2,0.1-0.4,0.2-0.5c-0.2,0-0.2-0.1-0.2-0.2
						c0.4,0,0.7,0.1,1.1,0.1c0,0.2,0.1,0.4,0.4,0.4s0.2-0.1,0.2-0.4c0.4,0,0.6,0,0.9,0.1c-0.1,0.5,0.6,0.6,0.8,0.9
						c-0.9-0.2-2-0.6-2.4,0c3.8,0.8,7.9,2,11.9,4c0,0,0,0,0,0.1h0.1c0.7,0.4,1.4,0.7,2.1,1.1c0.5,0.2,0.8,0.5,1.3,0.8
						c0,0.1,0,0.2,0.2,0.2h0.1c0.5,0.4,0.9,0.6,1.4,0.9c0.5,0.7,0.9,1.7,1.8,1.4c1.8,2.7,3.7,3.8,5.2,6.6c0.1-0.5,0.5,1.1,1.1,1.2
						c-0.9-0.1,0.6,0.6-0.4,0.5c0.8,0.8,1.1,1.2,1.2,2.1c-0.2-0.5-0.4-0.6-0.5-0.1c-0.1,0.7,0.8-0.1,1.2,0.6c-0.7,0-0.5,0.5-0.4,1.1
						c0.4-0.4,0.2-0.7,0.6-0.6c0.5,0.5-0.2,0.6-0.1,0.9c0.4-0.5,0.5-0.2,0.9,0c-0.6,0.1,0.4,0.9-0.4,0.6c0.5,0.6,0.6,0.9,0.4,1.5
						c-0.5-0.7-0.1-1.2-0.8-1.1c1.4,1.2,0.7,3.9,2.4,4.1c-1.1,0.2,0,0.7-0.6,0.8c0.7,0.2,0.4,1.2,1.2,1.4c-0.1,0.6-0.4,0.9-0.5,1.5
						c0.4,0.5,0.5,1.4,1.1,1.5c-0.4,0.4-0.1,1.3-0.5,1.7c0.5-0.2,0.7-0.2,1.1,0.2c-0.6,0.5-0.1,0.9-0.5,1.1
						c1.1,2.7-0.2,8.3,0.4,10.4c-0.7-0.4-0.5,0.8-0.9,0.8c0.8,0.4,0.1,0.9,0.5,1.5c-1.7,0.9,0,3.5-2.2,4.1c0.2,1.7-0.7,2.4-1.4,4.1
						c-0.1-0.1-0.1-0.2-0.2-0.4c-0.1,0.8-0.6,0.9-0.4,1.7l-0.5-0.2c0,1.3-2,2-2.5,4c-0.1,0.6-1.9,2.1-2.4,3
						c-0.2,0.4-0.1,0.9-0.4,0.1c-0.1,0.1-0.4,0.1-0.5,0.1c-0.1,0.8-0.8,1.1-1.1,2.1c-0.2,0.1-0.6-0.2-0.8,0.1c0,0.2,0.2,0.6,0.1,0.8
						c2.1-0.1,2.1-2.6,3.8-3.4c-0.1,0.4-0.8,0.7-0.4,0.9c0.4,0,1.4-1.2,0.8-1.1c0.4,0.2-0.4,0.5-0.5,0.4c0.6-0.5,0.4-1.1,0.8-1.2
						c0.4,0.2-0.4,0.8,0.4,0.7c0.5-1.1,1.1-1.2,1.8-1.8c-0.5,0.5,0.6,0.6,0.1,1.1c-1.8,0.4-1.2,2.4-3,2.6c-0.5,0.4-0.1,0.5-0.2,0.8
						c-0.6-0.4-1.9,1.7-1.4,1.5c-0.6,0.6-0.9,0.4-1.4,0.5c-0.1,0.5,0.5,0.1,0.2,0.5c-0.8-0.4-1.9,0.8-2.6,1.7l-0.4-0.4
						c-0.4,0.9-1.3,1.1-2.4,1.8c1.2,0.6,3.2-1.9,3.8-1.5c0.1,0,1.1-0.9,1.4-1.3c1.5-1.2,3.4-2.1,4.1-3.4c-0.1,0.2-0.8,0.2-0.5-0.1
						c0.4-0.1,0.7,0.1,1.1,0.1c1.9-2.6,4.3-4.7,6-7.8c0.1-0.1,0.2-0.4,0.4-0.6c-0.2,0.7-0.6,1.3-0.8,2c-1.9,1.3-2.6,5.1-4.9,5.7
						c0.1,1.3-1.1,1.7-1.7,3.2c-0.4,0.5-0.6-0.4-0.9,0.2c0.4,1.7-3,1.5-2.8,3.1c-0.2,0.1-0.6,0.2-0.8,0.5h-0.1
						c-0.1,0.1-0.1,0.1-0.2,0.2c-0.6,0.4-1.1,0.7-1.5,1.1c-1.7,0.9-3.9,1.7-5.7,2.6V313c-0.5,0.2-1.1,0.1-0.9,0.6
						c-0.4,0.2-0.7,0.5-1.1,0.7c-0.1,0-0.1,0-0.2,0c0,0-0.1-0.1-0.2-0.1c-0.2,0-0.2,0-0.4,0.1c-1.5,0.1-3.5,0.8-4.1,1.3
						c-0.6-0.4-3.3,0.2-3.8,0.5c0.2,0.4,0.9,0,1.5,0c-0.4,0.1-0.7,0.2-0.8,0.5c-0.1,0-0.1,0-0.2,0c-0.1-0.4-0.5,0-0.6-0.1H11
						c-0.1-0.5-0.5-0.7-1.1-0.6c0,0.2,0,0.4-0.1,0.6c0.2,0,0.9-0.4,0.9,0c-0.1,0-0.1,0.1,0,0.1c-0.2,0.2-0.6,0.2-0.8,0.4
						c-0.5,0-1.1,0-1.5,0c-0.1-0.1-0.2-0.1-0.5-0.2c-0.1,0.1-0.4,0.1-0.5,0.2c-0.7,0-1.5,0.1-2.1,0.2c0-0.2,0-0.5-0.2-0.5
						c-0.4,0.5-1.1-0.1-1.9,0.1c-0.8-0.2,0.5,0.4,1.7,0.6C4.7,317.5,4.6,317.6,4.2,317.7 M-12.3,319.4c-1.7-1.5-5.1-2.2-5.7-3.4
						c-0.9-0.1-2.4-1.9-3.5-2.1c0.6,0,0.1-0.4,0-0.6c-0.2,0.2-0.5,0.4-0.7,0.4c0-0.9-0.9-1.5-1.8-2.1c0.6,0.4,1.1,0.6,1.8,0.7
						c0-0.2,0-0.5,0.2-0.5c0.8,0.8,1.8,1.7,2.8,2.5c1.4,1.3,8.8,4.6,10.1,5.2c0,0-0.2,0.5-0.1,0.5c0.6,0.4,1.1-0.4,1.2,0.5
						C-10,320.6-10.7,319.3-12.3,319.4 M42.2,291.9v0.1l0,0C42.1,292.1,42.2,291.9,42.2,291.9 M-5.6,237.2c-0.1,0.1-0.2,0.1-0.2,0.1
						C-5.8,237.2-5.7,237.2-5.6,237.2 M-7.8,237.8C-7.8,237.9-7.8,237.9-7.8,237.8C-7.8,237.9-7.8,237.9-7.8,237.8
						C-7.8,237.9-7.8,237.8-7.8,237.8 M-15.6,240.2L-15.6,240.2c0.1-0.1,0.1-0.1,0.2-0.1C-15.5,240.1-15.6,240.2-15.6,240.2
						 M3.3,236.3c-0.2,0-0.4,0-0.5-0.1c0.1,0,0.2,0,0.4,0h0.1C3.3,236.2,3.3,236.2,3.3,236.3 M5.4,236.6c-0.1-0.1-0.5-0.2-0.8-0.2
						c0-0.1,0.1-0.2,0.1-0.2c0.1,0,0.2,0,0.4,0c0,0,0.1,0,0.1,0.1c0,0,0,0,0-0.1c0.1,0,0.1,0,0.2,0C5.5,236.3,5.7,236.5,5.4,236.6
						 M9.3,236.9c-0.6,0.1-0.9-0.1-1.5-0.5c0.4,0,0.8,0.1,1.2,0.2C9.1,236.7,9.2,236.8,9.3,236.9 M51.4,253.7
						c-0.2,0.1-0.4,0.1-0.6-0.4c-1.9-4-5.3-9.8-10.3-14.7c-4.9-5-11.4-9-17.3-11.1c0.4,0.1,0.8,0.4,0.6,0.6
						c-5.2-2-10.2-3.2-14.9-3.7c-12.8-2-26.1,0.7-36.4,7.3c0.1,0.2,0.1,0.4-0.2,0.6c-3.8,2.4-9.1,6.5-13.4,11.9s-7.6,12.3-9,18.5
						c0.1-0.4,0.2-0.9,0.5-0.7c-3.1,12.2-2.2,22.6,2,31.6c0.2-0.2-0.6-1.4,0.1-1.3c0.5,1.3,1.1,2.7,1.8,4c0.8,1.9,1.8,4.4,3.1,5
						c-3.3-6.5-5.6-14-5.8-20.6c0.5,0.9,0.4,3,1.1,3.8c0.2-4.5-0.8-10.5,0.7-14.8c-0.4,2.2-0.6,5.3-0.4,8.4c0,2.2,1.1,8.5,1.8,9.1
						c-0.1-0.1-0.1-0.7,0-0.7c0.4,0.7-0.5,1.1,0.1,1.2c0-0.2,0.1-0.2,0.2-0.2c1.2,2.6,2.7,6.6,3.9,8.6c1.4,2.6,3.3,5,5.4,7.1
						c0,0.1,0.1,0.1,0.1,0.2c0.2,0.6,1.1,1.3,1.3,1.8c0.1,0.2-0.1,0.6,0,0.8c1.8,3.3,4.4,6.6,7.6,9.2c2,2.4,5.2,4.9,9.1,7
						c3.8,2,8.2,3.7,12.2,4.6c2.8,0.7,6.3,0.8,8.4,1.3c2.8,0.6,7.8-0.2,10.3-0.7c14.9-2.2,29.7-12.4,37.1-27.1
						C58.3,285.7,58.1,267.6,51.4,253.7"/>
				</g>
			</g>
		</g>
	</g>
</g>
<g id="SvgjsG2936" transform="matrix(2.6534037590026855,0,0,2.6534037590026855,150.08965541812398,-37.949684557176965)">
	<path fill="#545454" d="M-28.2,146.2c0.3-0.1,0.5,0.1,0.6,0.6c0.1,0.4,0,0.8-0.2,1c-0.3,0.3-0.6,0.5-0.7,0.7
		c-0.1,0.2-0.3,0.3-0.7,0.4c-0.2,0-0.4,0-0.5,0c-0.1,0-0.3-0.2-0.4-0.8c0.1-0.3,0.3-0.7,0.6-1C-29.1,146.7-28.7,146.4-28.2,146.2
		L-28.2,146.2z M-28,152.3c0.2,1.5,0.3,3.2,0.3,5c0.1,1.8,0.2,3.7,0.3,5.7c0.1,1,0.3,1.8,0.4,2.4c0.1,0.6,0.2,1.1,0.3,1.6
		c-0.5,0.1-0.9,0.1-1.2,0s-0.6-0.2-0.8-0.4c-0.1-0.5-0.1-1.3-0.2-2.5c-0.1-1.2-0.2-2.4-0.2-3.8c-0.1-1.4-0.2-2.7-0.2-4
		c-0.1-1.3-0.1-2.3-0.2-3.1c0.1-0.1,0.2-0.2,0.3-0.3c0.1-0.1,0.2-0.2,0.3-0.3c0.1-0.1,0.2-0.2,0.4-0.2
		C-28.5,152.2-28.3,152.2-28,152.3L-28,152.3z M-24.3,151c0-0.3,0.1-0.4,0.2-0.5c0.2,0,0.3,0,0.5,0c0.2,0.1,0.3,0.2,0.5,0.3
		c0.2,0.1,0.3,0.2,0.4,0.3c0.1,0.8,0,1.9-0.1,3.4c-0.1,1.4-0.2,3.2-0.2,5.3c0.1-0.5,0.3-1.1,0.6-1.8c0.3-0.7,0.5-1.4,0.9-2.1
		c0.3-0.7,0.7-1.4,1.1-2s0.8-1.1,1.2-1.5c0.4-0.4,0.7-0.5,1.1-0.5s0.7,0.3,0.9,0.8c0.1,0.2,0.1,0.5,0.2,1s0.1,1.1,0.1,1.8
		s0,1.5,0.1,2.3s0.1,1.7,0.1,2.6c0.3-0.7,0.6-1.5,1-2.3c0.4-0.8,0.7-1.6,1.2-2.3c0.4-0.7,0.9-1.2,1.3-1.6c0.5-0.4,1-0.5,1.5-0.2
		c0.3,0.1,0.4,0.4,0.5,0.9c0.1,0.5,0.2,1.1,0.2,1.7c0.1,0.7,0.1,1.4,0.2,2.1c0.1,0.7,0.2,1.4,0.4,2s0.5,1.1,0.9,1.4
		c0.4,0.4,1,0.5,1.7,0.4c0.4,0,0.7,0,0.8,0s0.3,0,0.4,0.1c0.1,0,0.1,0.1,0.1,0.1c0,0.1,0,0.2,0,0.3c-1.2,0.6-2.1,0.8-2.9,0.6
		c-0.7-0.2-1.3-0.6-1.8-1.3c-0.4-0.7-0.7-1.5-0.9-2.5s-0.3-1.9-0.4-2.9c-0.1-0.4-0.2-0.6-0.4-0.5c-0.2,0.1-0.5,0.3-0.8,0.7
		c-0.3,0.4-0.6,0.9-1,1.5c-0.3,0.6-0.7,1.3-1,2c-0.3,0.7-0.6,1.4-0.8,2s-0.4,1.2-0.5,1.6c-0.2,0.3-0.4,0.4-0.8,0.2
		c-0.3-0.1-0.6-0.4-0.7-0.7c-0.1-0.5-0.2-1.1-0.2-1.9c0-0.7,0-1.5,0-2.2c0-0.8,0-1.5,0.1-2.2s0-1.3,0-1.8c0-0.5-0.1-0.9-0.2-1
		c-0.1-0.2-0.3-0.1-0.5,0.1c-0.5,0.8-1,1.8-1.5,2.8c-0.5,1-0.9,2.1-1.2,3.2s-0.6,2.2-0.9,3.4c-0.2,1.1-0.4,2.1-0.4,3.1
		c-0.5,0.1-0.9,0.1-1.1-0.2s-0.4-0.5-0.6-0.8c0.1-0.4,0.1-1.2,0.2-2.4c0-1.2,0.1-2.5,0.1-4c0-1.5,0.1-3.1,0.1-4.6
		C-24.4,153.6-24.4,152.2-24.3,151L-24.3,151z M4,154c0.1,0.1,0.3,0.1,0.4,0.2c0.2,0.1,0.3,0.2,0.5,0.4c0.2,0.2,0.3,0.4,0.4,0.7
		s0.2,0.7,0.2,1.2c-0.1,1.6-0.5,3.1-1.2,4.4c-0.8,1.3-1.7,2.4-2.7,3.4s-2.2,1.6-3.3,2c-1.1,0.4-2.1,0.6-2.9,0.5c0,3.1,0,5.6,0.1,7.7
		c0,2.1,0.1,3.7,0.1,5c0,1.3,0,2.3,0,3s-0.1,1.1-0.1,1.4c-0.1,0.3-0.2,0.4-0.4,0.4c-0.2,0-0.5-0.1-0.8-0.1c-0.1,0.1-0.1,0-0.1-0.2
		c0-0.2-0.1-0.6-0.1-1.2c0-0.6,0-1.5,0-2.6c0-0.1,0-0.6,0-1.6s0-2.2,0-3.7c0-1.5,0-3.1-0.1-4.9s-0.1-3.5-0.2-5.3
		c-0.1-1.7-0.1-3.3-0.2-4.7c-0.1-1.5-0.2-2.6-0.3-3.4c0-0.1,0-0.2,0-0.5L-7,155l-0.2-1.2l-0.3-1.3c0.5,0,0.9,0,1.1,0.2
		c0.2,0.1,0.4,0.3,0.6,0.5c0.2,0.6,0.4,1.6,0.5,2.9c0.2,1.3,0.4,3.1,0.6,5.4c0.1-0.3,0.2-0.8,0.5-1.3c0.3-0.6,0.6-1.2,1.1-1.8
		c0.4-0.6,0.9-1.3,1.5-1.9s1.2-1.2,1.8-1.6s1.3-0.7,1.9-0.9C2.7,153.7,3.4,153.7,4,154L4,154z M-2,164.7c1.5-0.6,2.6-1.4,3.4-2.3
		s1.4-1.9,1.8-2.8c0.4-0.9,0.6-1.8,0.6-2.5s-0.1-1.2-0.4-1.4c-0.6-0.4-1.2-0.5-1.8-0.1c-0.6,0.3-1.1,0.7-1.7,1.1
		c-0.3,0.3-0.7,0.7-1.2,1.3c-0.5,0.6-1,1.4-1.5,2.2s-0.9,1.6-1.3,2.4s-0.5,1.5-0.5,2.1c0.1,0.2,0.3,0.3,0.6,0.3
		c0.2,0.1,0.4,0.1,0.8,0S-2.5,164.9-2,164.7L-2,164.7z M9.9,164.9c0.2,0.2,0.6-0.1,1.1-0.8c0.5-0.7,1-1.6,1.5-2.7s0.9-2.2,1.2-3.5
		c0.3-1.2,0.4-2.3,0.3-3.2c0-0.2,0.1-0.3,0.2-0.4c0.2,0,0.3-0.1,0.5-0.1c0.2,0,0.4,0,0.6,0c0.2,0,0.4,0.1,0.4,0.1
		c-0.1,0.7-0.1,1.6-0.3,2.6c-0.1,1.1-0.2,2.1-0.2,3.1c0,1,0,2,0.1,2.8s0.4,1.4,0.8,1.7c0.3,0.2,0.7,0.2,1.2,0
		c0.5-0.3,0.9-0.6,1.3-0.9c0.4-0.4,0.8-0.7,1.2-1s0.6-0.4,0.7-0.3c-0.1,0.5-0.4,1.1-0.8,1.6c-0.4,0.5-0.9,0.9-1.4,1.3
		c-0.5,0.3-1.1,0.6-1.7,0.7c-0.6,0.1-1.1,0.1-1.6-0.1c-0.2,0-0.3-0.2-0.4-0.5c-0.1-0.3-0.2-0.7-0.3-1.2c-0.1-0.4-0.1-0.9-0.2-1.4
		s-0.1-1-0.2-1.4l-0.9,1.7l-0.9,1.8l-0.9,1.5l-0.7,0.7c-0.6,0.3-1.1,0.3-1.5,0.2s-0.6-0.3-0.7-0.6c-0.2-0.1-0.3-0.4-0.4-1
		c-0.1-0.6-0.1-1.3-0.2-2.1c0-0.9-0.1-1.8-0.1-2.9v-3.3l0-3.3l-0.1-3c0.2,0,0.4,0,0.7,0c0.2,0,0.4,0.1,0.6,0.1s0.3,0.1,0.5,0.3
		c0.2,0.7,0.2,2,0.1,3.8s-0.2,4-0.3,6.6c0,0.1,0,0.3,0,0.5c0,0.3,0,0.6,0.1,0.9s0.1,0.6,0.2,0.9S9.7,164.8,9.9,164.9L9.9,164.9z
		 M21.9,152.5c0,0.9,0,1.8,0,2.6c0,0.9,0,1.7,0,2.6c0,0.8,0,1.6,0,2.3c0,0.7,0,1.4-0.1,1.9c0-0.1,0.1-0.4,0.2-0.9
		c0.1-0.5,0.3-1,0.6-1.7c0.3-0.6,0.5-1.3,0.8-2s0.6-1.3,1-1.9c0.3-0.6,0.7-1,1.1-1.3c0.4-0.3,0.7-0.4,1-0.3c0.7,0.3,1.2,0.8,1.5,1.4
		c0.3,0.6,0.5,1.3,0.6,2.1c0.1,0.8,0.3,1.6,0.4,2.6s0.4,1.9,0.9,3c0.2,0.5,0.5,0.8,0.8,1c0.4,0.2,0.7,0.4,1,0.5
		c0.3,0.1,0.6,0.1,0.8,0.2c0.2,0,0.3,0.1,0.2,0.2c-0.8,0.6-1.5,0.8-2,0.6c-0.6-0.2-1-0.6-1.4-1.3s-0.7-1.4-1-2.3
		c-0.3-0.9-0.5-1.8-0.7-2.6c-0.2-0.8-0.4-1.5-0.5-2.1c-0.2-0.6-0.3-0.9-0.5-0.9c-0.3,0-0.6,0.3-0.9,0.8s-0.7,1.1-1,1.9
		s-0.7,1.6-1,2.5s-0.6,1.7-0.9,2.5c-0.3,0.8-0.5,1.5-0.6,2c-0.2,0.6-0.3,0.9-0.3,1c-0.5,0-0.8,0-0.9,0c-0.1,0-0.3-0.1-0.5-0.5
		c0.2-2.8,0.2-5.4,0.2-7.9c0-2.5-0.1-4.6-0.2-6.5c0-0.3,0.1-0.4,0.2-0.4s0.3,0.1,0.5,0.2c0.2,0.1,0.4,0.3,0.5,0.4
		C21.7,152.5,21.8,152.5,21.9,152.5L21.9,152.5z M34.1,146.2c0.3-0.1,0.5,0.1,0.6,0.6c0.1,0.4,0,0.8-0.2,1c-0.3,0.3-0.6,0.5-0.7,0.7
		c-0.1,0.2-0.3,0.3-0.7,0.4c-0.2,0-0.4,0-0.5,0c-0.1,0-0.3-0.2-0.4-0.8c0.1-0.3,0.3-0.7,0.6-1C33.2,146.7,33.6,146.4,34.1,146.2
		L34.1,146.2z M34.2,152.3c0.2,1.5,0.3,3.2,0.3,5s0.2,3.7,0.3,5.7c0.1,1,0.3,1.8,0.4,2.4c0.1,0.6,0.2,1.1,0.3,1.6
		c-0.5,0.1-0.9,0.1-1.2,0c-0.3-0.1-0.6-0.2-0.8-0.4c-0.1-0.5-0.1-1.3-0.2-2.5c-0.1-1.2-0.2-2.4-0.2-3.8c-0.1-1.4-0.2-2.7-0.2-4
		c-0.1-1.3-0.1-2.3-0.2-3.1c0.1-0.1,0.2-0.2,0.3-0.3c0.1-0.1,0.2-0.2,0.3-0.3c0.1-0.1,0.2-0.2,0.4-0.2
		C33.8,152.2,34,152.2,34.2,152.3L34.2,152.3z M43.8,152.9c1.4-0.1,2.7-0.2,4-0.3s2.7-0.2,4.1-0.4c0.3,0,0.5,0.2,0.6,0.5
		c0.1,0.3,0,0.5-0.4,0.5c-1.2,0.1-2.5,0.3-4,0.5c-1.5,0.2-2.9,0.5-4.3,0.9c0.1,1,0.1,2,0.1,3c0,1,0,2,0.1,3c0,1,0.1,2,0.3,2.9
		c0.1,0.9,0.4,1.8,0.7,2.6c0.4,0.5,0.9,0.9,1.3,0.9c0.4,0.1,0.9,0.1,1.3-0.1c0.4-0.1,0.8-0.4,1.1-0.7s0.6-0.6,0.9-0.9
		c0.2-0.2,0.4-0.2,0.5,0c0.1,0.2,0,0.6-0.4,1c-0.2,0.2-0.4,0.5-0.7,0.7c-0.3,0.3-0.6,0.5-1,0.6c-0.4,0.2-0.8,0.3-1.3,0.3
		c-0.5,0-1,0-1.6-0.2c-0.7-0.2-1.3-0.8-1.6-1.8c-0.3-1-0.6-2.1-0.8-3.4c-0.2-1.3-0.3-2.7-0.4-4.1c-0.1-1.4-0.1-2.7-0.2-3.8
		c-1.4,0.1-2.4,0.2-3.1,0.3c-0.6,0.1-1.1,0.2-1.4,0.2c-0.3,0-0.5,0-0.6,0s-0.3-0.2-0.5-0.4c0-0.2,0-0.3,0-0.4s0-0.3,0-0.4
		s0.1-0.2,0.2-0.3c0.1-0.1,0.3-0.2,0.6-0.2c0.5-0.1,1.2-0.2,2.1-0.2c0.9,0,1.8-0.1,2.6-0.2c0-1-0.1-1.8-0.1-2.4
		c0-0.6-0.1-1.1-0.1-1.5c0-0.4-0.1-0.8-0.1-1.3s0-0.9,0-1.6c0-0.2,0.1-0.3,0.3-0.4c0.2-0.1,0.4-0.1,0.6-0.1c0.2,0,0.4,0,0.6,0.1
		c0.2,0.1,0.3,0.2,0.4,0.4c0.1,0.3,0.2,0.7,0.2,1.3c0,0.6,0.1,1.1,0.1,1.8s0,1.2,0,1.9C43.8,151.9,43.8,152.4,43.8,152.9L43.8,152.9
		z M55.1,163.7c0.7,0.3,1.6-0.2,2.5-1.6s1.7-3.8,2.2-7c0,0,0.1,0,0.3,0c0.2,0,0.4,0.1,0.6,0.1c0.2,0.1,0.4,0.1,0.6,0.2
		c0.2,0.1,0.3,0.2,0.3,0.2c0,0.5,0,1-0.1,1.7c-0.1,0.7-0.1,1.4-0.2,2.2s-0.1,1.6-0.2,2.5c0,0.9,0,1.8,0,2.6c0.9-0.7,1.8-1.3,2.7-1.7
		c1-0.4,1.9-0.6,2.8-0.7c0.3,0.2,0.5,0.3,0.5,0.3c0,0-0.1,0.1-0.2,0.3c-1.2,0.3-2.2,0.8-3.1,1.4c-0.9,0.6-1.8,1.3-2.6,2
		c0,1,0,2.1,0,3.3c0,1.2,0,2.3,0,3.5s0,2.3,0,3.5c0,1.1-0.1,2.2-0.2,3.1c-0.1,0.9-0.3,1.7-0.5,2.3c-0.2,0.6-0.5,1.1-0.8,1.3
		c-0.3,0.2-0.5,0.3-0.9,0.3c-0.3,0-0.7,0.1-1,0c-0.3,0-0.6-0.1-0.9-0.2c-0.3-0.1-0.5-0.3-0.7-0.4c-0.6-0.6-1-1.4-1.3-2.3
		c-0.3-0.9-0.4-1.9-0.4-3.1s0.1-2.2,0.4-3.4s0.6-2.3,1-3.4c0.4-1.1,0.9-2,1.6-2.9c0.6-0.9,1.3-1.5,2-2c0.1-1.7,0.1-3.4,0.1-5
		c-0.3,0.8-0.8,1.7-1.4,2.6c-0.6,0.9-1.3,1.7-2.2,2.2c-1,0.4-1.8,0.4-2.5-0.1c-0.7-0.5-1.1-1.4-1.3-2.5c-0.2-1.3-0.3-2.4-0.4-3.2
		s-0.2-1.7-0.2-2.4c-0.1-0.8-0.1-1.5-0.2-2.4c0-0.8-0.1-1.8-0.2-3.1c0.2-0.1,0.4-0.1,0.7-0.1c0.3,0,0.6,0.1,0.7,0.3
		c0.1,0,0.2,0.3,0.2,0.8s0.1,1.2,0.1,1.9s0.1,1.6,0.1,2.6c0.1,0.9,0.2,1.8,0.3,2.6c0.1,0.8,0.3,1.6,0.6,2.2S54.7,163.5,55.1,163.7
		L55.1,163.7z M59.9,167.6c-0.2,0.2-0.4,0.4-0.6,0.6s-0.4,0.4-0.6,0.7c-0.4,0.5-0.8,1.2-1.2,2c-0.4,0.9-0.7,1.8-1,2.8
		c-0.3,1-0.4,2-0.5,3.1c-0.1,1-0.1,1.9,0.1,2.7s0.4,1.4,0.9,1.9c0.4,0.5,1.1,0.6,1.8,0.5c0.3-0.1,0.6-0.4,0.8-1.1
		c0.2-0.7,0.3-1.5,0.4-2.4s0.1-2,0.1-3.2c0-1.2,0-2.3,0-3.3c0-1.1-0.1-2-0.1-2.8C59.9,168.5,59.9,167.9,59.9,167.6L59.9,167.6z"/>
</g>
</svg>
