<svg xmlns="http://www.w3.org/2000/svg" xmlns:xlink="http://www.w3.org/1999/xlink" width="935pt" height="332pt" viewBox="0.00 0.00 934.50 332.00">
<g id="graph0" class="graph" transform="scale(1 1) rotate(0) translate(4 328)">
<title>%3</title>
<polygon fill="white" stroke="transparent" points="-4,4 -4,-328 930.5,-328 930.5,4 -4,4"/>
<!-- 0 -->
<g id="node1" class="node">
<title>0</title>
<text text-anchor="start" x="510" y="-303.3" font-family="Century" font-weight="bold" font-size="14.00" fill="#004080">FunctionDef</text>
</g>
<!-- 1 -->
<g id="node2" class="node">
<title>1</title>
<text text-anchor="middle" x="268.5" y="-230.3" font-family="Century" font-size="14.00" fill="#008040">&quot;speed&quot;</text>
</g>
<!-- 0&#45;&#45;1 -->
<g id="edge1" class="edge">
<title>0--1</title>
<path fill="none" stroke="black" d="M556.5,-287C556.5,-287 419.16,-279.22 313.5,-252 310.59,-251.25 307.61,-250.37 304.63,-249.42"/>
</g>
<!-- 2 -->
<g id="node3" class="node">
<title>2</title>
<text text-anchor="start" x="331" y="-231.3" font-family="Century" font-weight="bold" font-size="14.00" fill="#004080">arguments</text>
</g>
<!-- 0&#45;&#45;2 -->
<g id="edge2" class="edge">
<title>0--2</title>
<path fill="none" stroke="black" d="M556.5,-287C556.5,-287 478.62,-264.87 424.48,-249.48"/>
</g>
<!-- 11 -->
<g id="node12" class="node">
<title>11</title>
<text text-anchor="start" x="531.5" y="-231.3" font-family="Century" font-weight="bold" font-size="14.00" fill="#004080">Assign</text>
</g>
<!-- 0&#45;&#45;11 -->
<g id="edge11" class="edge">
<title>0--11</title>
<path fill="none" stroke="black" d="M556.5,-287C556.5,-287 556.88,-267.19 557.17,-252.03"/>
</g>
<!-- 23 -->
<g id="node24" class="node">
<title>23</title>
<text text-anchor="start" x="658.5" y="-231.3" font-family="Century" font-weight="bold" font-size="14.00" fill="#004080">Return</text>
</g>
<!-- 0&#45;&#45;23 -->
<g id="edge23" class="edge">
<title>0--23</title>
<path fill="none" stroke="black" d="M556.5,-287C556.5,-287 612.06,-264.61 650.25,-249.21"/>
</g>
<!-- 27 -->
<g id="node28" class="node">
<title>27</title>
<text text-anchor="start" x="766.5" y="-231.3" font-family="Century" font-weight="bold" font-size="14.00" fill="#004080">Constant</text>
</g>
<!-- 0&#45;&#45;27 -->
<g id="edge27" class="edge">
<title>0--27</title>
<path fill="none" stroke="black" d="M556.5,-287C556.5,-287 652.85,-268.68 729.5,-252 738.78,-249.98 748.71,-247.73 758.15,-245.55"/>
</g>
<!-- 3 -->
<g id="node4" class="node">
<title>3</title>
<text text-anchor="start" x="137" y="-159.3" font-family="Century" font-weight="bold" font-size="14.00" fill="#004080">arg</text>
</g>
<!-- 2&#45;&#45;3 -->
<g id="edge3" class="edge">
<title>2--3</title>
<path fill="none" stroke="black" d="M358.5,-215C358.5,-215 234.07,-183.89 177.69,-169.8"/>
</g>
<!-- 7 -->
<g id="node8" class="node">
<title>7</title>
<text text-anchor="start" x="349" y="-159.3" font-family="Century" font-weight="bold" font-size="14.00" fill="#004080">arg</text>
</g>
<!-- 2&#45;&#45;7 -->
<g id="edge7" class="edge">
<title>2--7</title>
<path fill="none" stroke="black" d="M358.5,-215C358.5,-215 360.02,-195.19 361.19,-180.03"/>
</g>
<!-- 4 -->
<g id="node5" class="node">
<title>4</title>
<text text-anchor="middle" x="44.5" y="-86.3" font-family="Century" font-size="14.00" fill="#008040">&quot;distance&quot;</text>
</g>
<!-- 3&#45;&#45;4 -->
<g id="edge4" class="edge">
<title>3--4</title>
<path fill="none" stroke="black" d="M140.5,-143C140.5,-143 103.93,-123.19 75.93,-108.03"/>
</g>
<!-- 5 -->
<g id="node6" class="node">
<title>5</title>
<text text-anchor="start" x="114.5" y="-87.3" font-family="Century" font-weight="bold" font-size="14.00" fill="#004080">Constant</text>
</g>
<!-- 3&#45;&#45;5 -->
<g id="edge5" class="edge">
<title>3--5</title>
<path fill="none" stroke="black" d="M140.5,-143C140.5,-143 144.31,-123.19 147.23,-108.03"/>
</g>
<!-- 6 -->
<g id="node7" class="node">
<title>6</title>
<text text-anchor="middle" x="150.5" y="-14.3" font-family="Century" font-size="14.00" fill="#008040">&quot;meters&quot;</text>
</g>
<!-- 5&#45;&#45;6 -->
<g id="edge6" class="edge">
<title>5--6</title>
<path fill="none" stroke="black" d="M150.5,-71.7C150.5,-60.85 150.5,-46.92 150.5,-36.1"/>
</g>
<!-- 8 -->
<g id="node9" class="node">
<title>8</title>
<text text-anchor="middle" x="256.5" y="-86.3" font-family="Century" font-size="14.00" fill="#008040">&quot;duration&quot;</text>
</g>
<!-- 7&#45;&#45;8 -->
<g id="edge8" class="edge">
<title>7--8</title>
<path fill="none" stroke="black" d="M352.5,-143C352.5,-143 315.93,-123.19 287.93,-108.03"/>
</g>
<!-- 9 -->
<g id="node10" class="node">
<title>9</title>
<text text-anchor="start" x="326.5" y="-87.3" font-family="Century" font-weight="bold" font-size="14.00" fill="#004080">Constant</text>
</g>
<!-- 7&#45;&#45;9 -->
<g id="edge9" class="edge">
<title>7--9</title>
<path fill="none" stroke="black" d="M352.5,-143C352.5,-143 356.31,-123.19 359.23,-108.03"/>
</g>
<!-- 10 -->
<g id="node11" class="node">
<title>10</title>
<text text-anchor="middle" x="362.5" y="-14.3" font-family="Century" font-size="14.00" fill="#008040">&quot;seconds&quot;</text>
</g>
<!-- 9&#45;&#45;10 -->
<g id="edge10" class="edge">
<title>9--10</title>
<path fill="none" stroke="black" d="M362.5,-71.7C362.5,-60.85 362.5,-46.92 362.5,-36.1"/>
</g>
<!-- 12 -->
<g id="node13" class="node">
<title>12</title>
<text text-anchor="start" x="500.5" y="-159.3" font-family="Century" font-weight="bold" font-size="14.00" fill="#004080">Name</text>
</g>
<!-- 11&#45;&#45;12 -->
<g id="edge12" class="edge">
<title>11--12</title>
<path fill="none" stroke="black" d="M561.5,-215C561.5,-215 547.03,-195.19 535.94,-180.03"/>
</g>
<!-- 15 -->
<g id="node16" class="node">
<title>15</title>
<text text-anchor="start" x="616" y="-159.3" font-family="Century" font-weight="bold" font-size="14.00" fill="#004080">BinOp</text>
</g>
<!-- 11&#45;&#45;15 -->
<g id="edge15" class="edge">
<title>11--15</title>
<path fill="none" stroke="black" d="M561.5,-215C561.5,-215 591.21,-195.19 613.96,-180.03"/>
</g>
<!-- 13 -->
<g id="node14" class="node">
<title>13</title>
<text text-anchor="middle" x="451.5" y="-86.3" font-family="Century" font-size="14.00" fill="#008040">&quot;res&quot;</text>
</g>
<!-- 12&#45;&#45;13 -->
<g id="edge13" class="edge">
<title>12--13</title>
<path fill="none" stroke="black" d="M515.5,-143C515.5,-143 491.12,-123.19 472.46,-108.03"/>
</g>
<!-- 14 -->
<g id="node15" class="node">
<title>14</title>
<text text-anchor="middle" x="523.5" y="-86.3" font-family="Century" font-size="14.00" fill="#008040">Store</text>
</g>
<!-- 12&#45;&#45;14 -->
<g id="edge14" class="edge">
<title>12--14</title>
<path fill="none" stroke="black" d="M515.5,-143C515.5,-143 518.55,-123.19 520.88,-108.03"/>
</g>
<!-- 16 -->
<g id="node17" class="node">
<title>16</title>
<text text-anchor="start" x="576.5" y="-87.3" font-family="Century" font-weight="bold" font-size="14.00" fill="#004080">Name</text>
</g>
<!-- 15&#45;&#45;16 -->
<g id="edge16" class="edge">
<title>15--16</title>
<path fill="none" stroke="black" d="M645.5,-143C645.5,-143 627.98,-123.19 614.56,-108.03"/>
</g>
<!-- 19 -->
<g id="node20" class="node">
<title>19</title>
<text text-anchor="middle" x="675.5" y="-86.3" font-family="Century" font-size="14.00" fill="#008040">Div</text>
</g>
<!-- 15&#45;&#45;19 -->
<g id="edge19" class="edge">
<title>15--19</title>
<path fill="none" stroke="black" d="M645.5,-143C645.5,-143 656.93,-123.19 665.68,-108.03"/>
</g>
<!-- 20 -->
<g id="node21" class="node">
<title>20</title>
<text text-anchor="start" x="728.5" y="-87.3" font-family="Century" font-weight="bold" font-size="14.00" fill="#004080">Name</text>
</g>
<!-- 15&#45;&#45;20 -->
<g id="edge20" class="edge">
<title>15--20</title>
<path fill="none" stroke="black" d="M645.5,-143C645.5,-143 689,-121.66 720.27,-106.32"/>
</g>
<!-- 17 -->
<g id="node18" class="node">
<title>17</title>
<text text-anchor="middle" x="524.5" y="-14.3" font-family="Century" font-size="14.00" fill="#008040">&quot;distance&quot;</text>
</g>
<!-- 16&#45;&#45;17 -->
<g id="edge17" class="edge">
<title>16--17</title>
<path fill="none" stroke="black" d="M593.5,-71C593.5,-71 567.22,-51.19 547.09,-36.03"/>
</g>
<!-- 18 -->
<g id="node19" class="node">
<title>18</title>
<text text-anchor="middle" x="614.5" y="-14.3" font-family="Century" font-size="14.00" fill="#008040">Load</text>
</g>
<!-- 16&#45;&#45;18 -->
<g id="edge18" class="edge">
<title>16--18</title>
<path fill="none" stroke="black" d="M593.5,-71C593.5,-71 601.5,-51.19 607.62,-36.03"/>
</g>
<!-- 21 -->
<g id="node22" class="node">
<title>21</title>
<text text-anchor="middle" x="735.5" y="-14.3" font-family="Century" font-size="14.00" fill="#008040">&quot;duration&quot;</text>
</g>
<!-- 20&#45;&#45;21 -->
<g id="edge21" class="edge">
<title>20--21</title>
<path fill="none" stroke="black" d="M756.5,-71C756.5,-71 748.5,-51.19 742.38,-36.03"/>
</g>
<!-- 22 -->
<g id="node23" class="node">
<title>22</title>
<text text-anchor="middle" x="825.5" y="-14.3" font-family="Century" font-size="14.00" fill="#008040">Load</text>
</g>
<!-- 20&#45;&#45;22 -->
<g id="edge22" class="edge">
<title>20--22</title>
<path fill="none" stroke="black" d="M756.5,-71C756.5,-71 782.78,-51.19 802.91,-36.03"/>
</g>
<!-- 24 -->
<g id="node25" class="node">
<title>24</title>
<text text-anchor="start" x="707.5" y="-159.3" font-family="Century" font-weight="bold" font-size="14.00" fill="#004080">Name</text>
</g>
<!-- 23&#45;&#45;24 -->
<g id="edge24" class="edge">
<title>23--24</title>
<path fill="none" stroke="black" d="M696.62,-215.7C703.6,-204.85 712.55,-190.92 719.5,-180.1"/>
</g>
<!-- 25 -->
<g id="node26" class="node">
<title>25</title>
<text text-anchor="middle" x="827.5" y="-86.3" font-family="Century" font-size="14.00" fill="#008040">&quot;res&quot;</text>
</g>
<!-- 24&#45;&#45;25 -->
<g id="edge25" class="edge">
<title>24--25</title>
<path fill="none" stroke="black" d="M761.5,-143C761.5,-143 786.64,-123.19 805.89,-108.03"/>
</g>
<!-- 26 -->
<g id="node27" class="node">
<title>26</title>
<text text-anchor="middle" x="899.5" y="-86.3" font-family="Century" font-size="14.00" fill="#008040">Load</text>
</g>
<!-- 24&#45;&#45;26 -->
<g id="edge26" class="edge">
<title>24--26</title>
<path fill="none" stroke="black" d="M761.5,-143C761.5,-143 819.1,-126.04 863.5,-108 866.32,-106.86 869.23,-105.6 872.12,-104.31"/>
</g>
<!-- 28 -->
<g id="node29" class="node">
<title>28</title>
<text text-anchor="middle" x="812.5" y="-158.3" font-family="Century" font-size="14.00" fill="#008040">&quot;km/h&quot;</text>
</g>
<!-- 27&#45;&#45;28 -->
<g id="edge28" class="edge">
<title>27--28</title>
<path fill="none" stroke="black" d="M804.97,-215.7C806.52,-204.85 808.51,-190.92 810.06,-180.1"/>
</g>
</g>
</svg>