<svg xmlns="http://www.w3.org/2000/svg" xmlns:xlink="http://www.w3.org/1999/xlink" width="1059pt" height="332pt" viewBox="0.00 0.00 1058.50 332.00">
<g id="graph0" class="graph" transform="scale(1 1) rotate(0) translate(4 328)">
<title>%3</title>
<polygon fill="white" stroke="transparent" points="-4,4 -4,-328 1054.5,-328 1054.5,4 -4,4"/>
<!-- 0 -->
<g id="node1" class="node">
<title>0</title>
<text text-anchor="start" x="535" y="-303.3" font-family="Century" font-weight="bold" font-size="14.00" fill="#004080">FunctionDef</text>
</g>
<!-- 1 -->
<g id="node2" class="node">
<title>1</title>
<text text-anchor="middle" x="316.5" y="-230.3" font-family="Century" font-size="14.00" fill="#008040">&quot;speed&quot;</text>
</g>
<!-- 0&#45;&#45;1 -->
<g id="edge1" class="edge">
<title>0--1</title>
<path fill="none" stroke="black" d="M582.5,-287C582.5,-287 457.63,-277.48 361.5,-252 358.59,-251.23 355.62,-250.34 352.64,-249.38"/>
</g>
<!-- 2 -->
<g id="node3" class="node">
<title>2</title>
<text text-anchor="start" x="379" y="-231.3" font-family="Century" font-weight="bold" font-size="14.00" fill="#004080">arguments</text>
</g>
<!-- 0&#45;&#45;2 -->
<g id="edge2" class="edge">
<title>0--2</title>
<path fill="none" stroke="black" d="M582.5,-287C582.5,-287 519.61,-266.69 472.44,-251.45"/>
</g>
<!-- 11 -->
<g id="node12" class="node">
<title>11</title>
<text text-anchor="start" x="556.5" y="-231.3" font-family="Century" font-weight="bold" font-size="14.00" fill="#004080">Assign</text>
</g>
<!-- 0&#45;&#45;11 -->
<g id="edge11" class="edge">
<title>0--11</title>
<path fill="none" stroke="black" d="M582.5,-287C582.5,-287 582.5,-267.19 582.5,-252.03"/>
</g>
<!-- 23 -->
<g id="node24" class="node">
<title>23</title>
<text text-anchor="start" x="682.5" y="-231.3" font-family="Century" font-weight="bold" font-size="14.00" fill="#004080">Return</text>
</g>
<!-- 0&#45;&#45;23 -->
<g id="edge23" class="edge">
<title>0--23</title>
<path fill="none" stroke="black" d="M582.5,-287C582.5,-287 636.87,-264.74 674.46,-249.35"/>
</g>
<!-- 31 -->
<g id="node32" class="node">
<title>31</title>
<text text-anchor="start" x="848.5" y="-231.3" font-family="Century" font-weight="bold" font-size="14.00" fill="#004080">Constant</text>
</g>
<!-- 0&#45;&#45;31 -->
<g id="edge31" class="edge">
<title>0--31</title>
<path fill="none" stroke="black" d="M582.5,-287C582.5,-287 756.38,-257.06 840.26,-242.62"/>
</g>
<!-- 3 -->
<g id="node4" class="node">
<title>3</title>
<text text-anchor="start" x="137" y="-159.3" font-family="Century" font-weight="bold" font-size="14.00" fill="#004080">arg</text>
</g>
<!-- 2&#45;&#45;3 -->
<g id="edge3" class="edge">
<title>2--3</title>
<path fill="none" stroke="black" d="M393.5,-215C393.5,-215 241.45,-182.46 177.9,-168.86"/>
</g>
<!-- 7 -->
<g id="node8" class="node">
<title>7</title>
<text text-anchor="start" x="349" y="-159.3" font-family="Century" font-weight="bold" font-size="14.00" fill="#004080">arg</text>
</g>
<!-- 2&#45;&#45;7 -->
<g id="edge7" class="edge">
<title>2--7</title>
<path fill="none" stroke="black" d="M393.5,-215C393.5,-215 381.69,-195.19 372.65,-180.03"/>
</g>
<!-- 4 -->
<g id="node5" class="node">
<title>4</title>
<text text-anchor="middle" x="44.5" y="-86.3" font-family="Century" font-size="14.00" fill="#008040">&quot;distance&quot;</text>
</g>
<!-- 3&#45;&#45;4 -->
<g id="edge4" class="edge">
<title>3--4</title>
<path fill="none" stroke="black" d="M140.5,-143C140.5,-143 103.93,-123.19 75.93,-108.03"/>
</g>
<!-- 5 -->
<g id="node6" class="node">
<title>5</title>
<text text-anchor="start" x="114.5" y="-87.3" font-family="Century" font-weight="bold" font-size="14.00" fill="#004080">Constant</text>
</g>
<!-- 3&#45;&#45;5 -->
<g id="edge5" class="edge">
<title>3--5</title>
<path fill="none" stroke="black" d="M140.5,-143C140.5,-143 144.31,-123.19 147.23,-108.03"/>
</g>
<!-- 6 -->
<g id="node7" class="node">
<title>6</title>
<text text-anchor="middle" x="150.5" y="-14.3" font-family="Century" font-size="14.00" fill="#008040">&quot;meters&quot;</text>
</g>
<!-- 5&#45;&#45;6 -->
<g id="edge6" class="edge">
<title>5--6</title>
<path fill="none" stroke="black" d="M150.5,-71.7C150.5,-60.85 150.5,-46.92 150.5,-36.1"/>
</g>
<!-- 8 -->
<g id="node9" class="node">
<title>8</title>
<text text-anchor="middle" x="256.5" y="-86.3" font-family="Century" font-size="14.00" fill="#008040">&quot;duration&quot;</text>
</g>
<!-- 7&#45;&#45;8 -->
<g id="edge8" class="edge">
<title>7--8</title>
<path fill="none" stroke="black" d="M352.5,-143C352.5,-143 315.93,-123.19 287.93,-108.03"/>
</g>
<!-- 9 -->
<g id="node10" class="node">
<title>9</title>
<text text-anchor="start" x="326.5" y="-87.3" font-family="Century" font-weight="bold" font-size="14.00" fill="#004080">Constant</text>
</g>
<!-- 7&#45;&#45;9 -->
<g id="edge9" class="edge">
<title>7--9</title>
<path fill="none" stroke="black" d="M352.5,-143C352.5,-143 356.31,-123.19 359.23,-108.03"/>
</g>
<!-- 10 -->
<g id="node11" class="node">
<title>10</title>
<text text-anchor="middle" x="362.5" y="-14.3" font-family="Century" font-size="14.00" fill="#008040">&quot;seconds&quot;</text>
</g>
<!-- 9&#45;&#45;10 -->
<g id="edge10" class="edge">
<title>9--10</title>
<path fill="none" stroke="black" d="M362.5,-71.7C362.5,-60.85 362.5,-46.92 362.5,-36.1"/>
</g>
<!-- 12 -->
<g id="node13" class="node">
<title>12</title>
<text text-anchor="start" x="500.5" y="-159.3" font-family="Century" font-weight="bold" font-size="14.00" fill="#004080">Name</text>
</g>
<!-- 11&#45;&#45;12 -->
<g id="edge12" class="edge">
<title>11--12</title>
<path fill="none" stroke="black" d="M582.5,-215C582.5,-215 560.03,-195.19 542.82,-180.03"/>
</g>
<!-- 15 -->
<g id="node16" class="node">
<title>15</title>
<text text-anchor="start" x="617" y="-159.3" font-family="Century" font-weight="bold" font-size="14.00" fill="#004080">BinOp</text>
</g>
<!-- 11&#45;&#45;15 -->
<g id="edge15" class="edge">
<title>11--15</title>
<path fill="none" stroke="black" d="M582.5,-215C582.5,-215 604.59,-195.19 621.51,-180.03"/>
</g>
<!-- 13 -->
<g id="node14" class="node">
<title>13</title>
<text text-anchor="middle" x="451.5" y="-86.3" font-family="Century" font-size="14.00" fill="#008040">&quot;res&quot;</text>
</g>
<!-- 12&#45;&#45;13 -->
<g id="edge13" class="edge">
<title>12--13</title>
<path fill="none" stroke="black" d="M515.5,-143C515.5,-143 491.12,-123.19 472.46,-108.03"/>
</g>
<!-- 14 -->
<g id="node15" class="node">
<title>14</title>
<text text-anchor="middle" x="523.5" y="-86.3" font-family="Century" font-size="14.00" fill="#008040">Store</text>
</g>
<!-- 12&#45;&#45;14 -->
<g id="edge14" class="edge">
<title>12--14</title>
<path fill="none" stroke="black" d="M515.5,-143C515.5,-143 518.55,-123.19 520.88,-108.03"/>
</g>
<!-- 16 -->
<g id="node17" class="node">
<title>16</title>
<text text-anchor="start" x="576.5" y="-87.3" font-family="Century" font-weight="bold" font-size="14.00" fill="#004080">Name</text>
</g>
<!-- 15&#45;&#45;16 -->
<g id="edge16" class="edge">
<title>15--16</title>
<path fill="none" stroke="black" d="M646.5,-143C646.5,-143 628.6,-123.19 614.89,-108.03"/>
</g>
<!-- 19 -->
<g id="node20" class="node">
<title>19</title>
<text text-anchor="middle" x="675.5" y="-86.3" font-family="Century" font-size="14.00" fill="#008040">Div</text>
</g>
<!-- 15&#45;&#45;19 -->
<g id="edge19" class="edge">
<title>15--19</title>
<path fill="none" stroke="black" d="M646.5,-143C646.5,-143 657.55,-123.19 666,-108.03"/>
</g>
<!-- 20 -->
<g id="node21" class="node">
<title>20</title>
<text text-anchor="start" x="728.5" y="-87.3" font-family="Century" font-weight="bold" font-size="14.00" fill="#004080">Name</text>
</g>
<!-- 15&#45;&#45;20 -->
<g id="edge20" class="edge">
<title>15--20</title>
<path fill="none" stroke="black" d="M646.5,-143C646.5,-143 689.33,-121.79 720.28,-106.46"/>
</g>
<!-- 17 -->
<g id="node18" class="node">
<title>17</title>
<text text-anchor="middle" x="504.5" y="-14.3" font-family="Century" font-size="14.00" fill="#008040">&quot;distance&quot;</text>
</g>
<!-- 16&#45;&#45;17 -->
<g id="edge17" class="edge">
<title>16--17</title>
<path fill="none" stroke="black" d="M589.5,-71C589.5,-71 557.12,-51.19 532.33,-36.03"/>
</g>
<!-- 18 -->
<g id="node19" class="node">
<title>18</title>
<text text-anchor="middle" x="594.5" y="-14.3" font-family="Century" font-size="14.00" fill="#008040">Load</text>
</g>
<!-- 16&#45;&#45;18 -->
<g id="edge18" class="edge">
<title>16--18</title>
<path fill="none" stroke="black" d="M589.5,-71C589.5,-71 591.4,-51.19 592.86,-36.03"/>
</g>
<!-- 21 -->
<g id="node22" class="node">
<title>21</title>
<text text-anchor="middle" x="684.5" y="-14.3" font-family="Century" font-size="14.00" fill="#008040">&quot;duration&quot;</text>
</g>
<!-- 20&#45;&#45;21 -->
<g id="edge21" class="edge">
<title>20--21</title>
<path fill="none" stroke="black" d="M747.5,-71C747.5,-71 723.5,-51.19 705.13,-36.03"/>
</g>
<!-- 22 -->
<g id="node23" class="node">
<title>22</title>
<text text-anchor="middle" x="774.5" y="-14.3" font-family="Century" font-size="14.00" fill="#008040">Load</text>
</g>
<!-- 20&#45;&#45;22 -->
<g id="edge22" class="edge">
<title>20--22</title>
<path fill="none" stroke="black" d="M747.5,-71C747.5,-71 757.78,-51.19 765.66,-36.03"/>
</g>
<!-- 24 -->
<g id="node25" class="node">
<title>24</title>
<text text-anchor="start" x="818" y="-159.3" font-family="Century" font-weight="bold" font-size="14.00" fill="#ef233c">BinOp</text>
</g>
<!-- 23&#45;&#45;24 -->
<g id="edge24" class="edge">
<title>23--24</title>
<path fill="none" stroke="black" d="M741.79,-215.88C762.55,-204.87 789.39,-190.63 810,-179.71"/>
</g>
<!-- 25 -->
<g id="node26" class="node">
<title>25</title>
<text text-anchor="start" x="818.5" y="-87.3" font-family="Century" font-weight="bold" font-size="14.00" fill="#004080">Name</text>
</g>
<!-- 24&#45;&#45;25 -->
<g id="edge25" class="edge">
<title>24--25</title>
<path fill="none" stroke="black" d="M855.5,-143C855.5,-143 850.17,-123.19 846.08,-108.03"/>
</g>
<!-- 28 -->
<g id="node29" class="node">
<title>28</title>
<text text-anchor="middle" x="917.5" y="-86.3" font-family="Century" font-size="14.00" fill="#ef233c">Mult</text>
</g>
<!-- 24&#45;&#45;28 -->
<g id="edge28" class="edge">
<title>24--28</title>
<path fill="none" stroke="black" d="M855.5,-143C855.5,-143 879.12,-123.19 897.2,-108.03"/>
</g>
<!-- 29 -->
<g id="node30" class="node">
<title>29</title>
<text text-anchor="start" x="970.5" y="-87.3" font-family="Century" font-weight="bold" font-size="14.00" fill="#ef233c">Constant</text>
</g>
<!-- 24&#45;&#45;29 -->
<g id="edge29" class="edge">
<title>24--29</title>
<path fill="none" stroke="black" d="M855.5,-143C855.5,-143 917.85,-121.53 962.42,-106.18"/>
</g>
<!-- 26 -->
<g id="node27" class="node">
<title>26</title>
<text text-anchor="middle" x="846.5" y="-14.3" font-family="Century" font-size="14.00" fill="#008040">&quot;res&quot;</text>
</g>
<!-- 25&#45;&#45;26 -->
<g id="edge26" class="edge">
<title>25--26</title>
<path fill="none" stroke="black" d="M850.5,-71C850.5,-71 848.98,-51.19 847.81,-36.03"/>
</g>
<!-- 27 -->
<g id="node28" class="node">
<title>27</title>
<text text-anchor="middle" x="918.5" y="-14.3" font-family="Century" font-size="14.00" fill="#008040">Load</text>
</g>
<!-- 25&#45;&#45;27 -->
<g id="edge27" class="edge">
<title>25--27</title>
<path fill="none" stroke="black" d="M850.5,-71C850.5,-71 876.4,-51.19 896.23,-36.03"/>
</g>
<!-- 30 -->
<g id="node31" class="node">
<title>30</title>
<text text-anchor="middle" x="1006.5" y="-14.3" font-family="Century" font-size="14.00" fill="#ef233c">3.6</text>
</g>
<!-- 29&#45;&#45;30 -->
<g id="edge30" class="edge">
<title>29--30</title>
<path fill="none" stroke="black" d="M1006.5,-71.7C1006.5,-60.85 1006.5,-46.92 1006.5,-36.1"/>
</g>
<!-- 32 -->
<g id="node33" class="node">
<title>32</title>
<text text-anchor="middle" x="923.5" y="-158.3" font-family="Century" font-size="14.00" fill="#008040">&quot;km/h&quot;</text>
</g>
<!-- 31&#45;&#45;32 -->
<g id="edge32" class="edge">
<title>31--32</title>
<path fill="none" stroke="black" d="M894.14,-215.7C900.19,-204.85 907.95,-190.92 913.97,-180.1"/>
</g>
</g>
</svg>